<?xml version="1.0" encoding="UTF-8" standalone="no"?>
<!DOCTYPE svg PUBLIC "-//W3C//DTD SVG 1.1//EN" "http://www.w3.org/Graphics/SVG/1.1/DTD/svg11.dtd">
<svg xmlns="http://www.w3.org/2000/svg" version="1.1" viewBox="0.00 0.00 512.00 512.00">
<g stroke-width="2.00" fill="none" stroke-linecap="butt">
<path stroke="#2198ff" vector-effect="non-scaling-stroke" d="
  M 222.75 140.23
  Q 222.86 139.67 223.65 139.24
  Q 224.18 138.96 224.18 138.36
  L 224.17 50.36
  Q 224.17 49.71 223.56 49.47
  L 222.49 49.04"
/>
<path stroke="#18a2ff" vector-effect="non-scaling-stroke" d="
  M 154.04 199.25
  Q 154.22 195.53 157.03 191.62
  A 0.60 0.60 0.0 0 0 156.84 190.75
  C 155.37 189.90 156.24 188.56 156.24 187.44
  Q 156.30 155.75 156.20 124.06
  C 156.18 117.33 155.59 110.71 156.85 108.02
  A 0.64 0.63 -60.4 0 0 156.64 107.23
  Q 155.59 106.51 156.04 105.76"
/>
<path stroke="#18a2ff" vector-effect="non-scaling-stroke" d="
  M 155.80 315.96
  Q 155.76 319.73 158.65 322.63
  Q 158.99 322.97 158.99 323.46
  L 158.85 404.54"
/>
<path stroke="#10adff" vector-effect="non-scaling-stroke" d="
  M 115.46 419.19
  L 116.22 418.96
  A 0.33 0.33 0.0 0 0 116.26 418.34
  L 114.84 417.68
  Q 114.24 417.40 114.24 416.75
  L 114.25 96.50
  Q 114.25 96.00 114.75 96.00
  L 115.53 96.00
  A 0.50 0.50 0.0 0 0 116.00 95.33
  Q 115.60 94.22 114.35 94.50
  A 0.05 0.05 0.0 0 1 114.29 94.43
  L 114.45 94.14
  Q 114.54 93.97 114.36 93.90
  Q 113.93 93.71 113.63 93.41"
/>
<path stroke="#2198ff" vector-effect="non-scaling-stroke" d="
  M 222.77 371.75
  L 222.66 372.06
  Q 222.56 372.34 222.79 372.53
  L 223.60 373.20
  Q 224.00 373.52 224.00 374.04
  L 224.00 462.25
  Q 224.00 462.78 223.48 462.67
  Q 222.75 462.52 222.62 462.90"
/>
<path stroke="#3d76ff" vector-effect="non-scaling-stroke" d="
  M 360.99 218.23
  L 378.50 217.79
  A 0.27 0.26 -44.2 0 0 378.51 217.26
  Q 378.37 217.25 378.25 217.25
  Q 378.19 217.25 378.20 216.94
  Q 378.21 216.48 378.61 216.50
  A 0.39 0.39 0.0 0 0 379.02 216.11
  C 378.99 213.20 378.25 205.79 379.97 203.60
  A 0.48 0.47 -69.1 0 0 379.63 202.83
  L 371.06 202.32"
/>
<path stroke="#2198ff" vector-effect="non-scaling-stroke" d="
  M 207.85 347.39
  Q 208.15 346.72 208.75 347.34
  Q 208.88 347.48 208.88 347.29
  L 209.75 302.78
  Q 209.76 302.08 210.02 302.73
  Q 210.40 303.68 210.23 304.73
  A 0.14 0.14 0.0 0 0 210.47 304.85
  Q 210.57 304.76 210.57 304.57
  Q 210.60 298.73 209.22 293.11
  C 207.49 286.12 207.95 277.41 207.52 272.01
  Q 207.39 270.44 205.66 269.98
  Q 205.20 269.86 205.27 269.39
  Q 205.54 267.79 205.19 266.30
  Q 205.08 265.83 205.16 265.36
  C 205.56 263.21 204.46 261.53 204.41 259.86
  Q 204.36 258.27 204.62 256.70
  C 205.24 252.88 204.35 249.21 205.02 245.20
  Q 205.10 244.74 204.92 244.32
  C 203.87 241.86 204.53 238.26 204.92 235.68
  Q 205.04 234.90 205.75 235.25
  L 205.98 235.36
  Q 206.54 235.63 206.77 235.06
  Q 208.10 231.85 207.45 228.41
  Q 207.39 228.13 207.54 227.88
  L 207.78 227.48
  Q 208.09 226.96 207.66 226.54
  L 207.47 226.34
  Q 207.17 226.05 207.41 225.71
  Q 208.60 223.95 208.21 221.81
  Q 208.11 221.25 208.69 221.25
  Q 208.86 221.25 209.08 221.24
  Q 209.57 221.20 209.57 220.71
  Q 209.56 216.01 210.04 211.32
  C 210.46 207.24 209.88 203.95 209.55 200.01
  C 208.75 190.26 209.18 180.12 209.11 170.31
  Q 209.08 167.53 209.41 165.91
  Q 209.51 165.44 209.10 165.69
  Q 206.53 167.31 205.11 166.45"
/>
<path stroke="#4a66ff" vector-effect="non-scaling-stroke" d="
  M 426.44 264.09
  Q 427.16 264.24 425.82 263.01
  Q 425.43 262.66 425.54 262.14
  Q 426.30 258.76 425.94 255.26
  A 0.57 0.56 60.3 0 1 426.04 254.88
  Q 427.91 251.96 425.09 250.70
  Q 424.55 250.46 424.71 249.88
  L 425.05 248.73
  Q 425.13 248.46 424.85 248.45
  L 415.94 248.08"
/>
<path stroke="#3d76ff" vector-effect="non-scaling-stroke" d="
  M 351.97 248.08
  L 373.11 248.71
  Q 373.19 248.71 373.19 248.79
  Q 373.19 248.83 373.19 248.86
  Q 373.19 248.93 373.00 248.94
  L 367.55 249.16
  Q 367.03 249.18 367.30 249.63
  L 367.65 250.23
  Q 367.94 250.72 368.52 250.80
  L 371.77 251.21
  A 0.37 0.37 0.0 0 1 371.82 251.94
  Q 370.13 252.43 370.47 254.05
  Q 370.58 254.56 370.09 254.72
  L 367.27 255.64
  A 0.16 0.16 0.0 0 0 367.30 255.95
  L 367.72 256.01
  A 0.11 0.11 0.0 0 1 367.73 256.23
  Q 367.55 256.27 367.36 256.34
  Q 367.04 256.46 367.05 256.81
  L 367.19 260.84
  Q 367.21 261.37 367.00 261.85
  L 366.53 262.95
  Q 366.37 263.33 366.78 263.34
  L 384.03 263.95"
/>
<path stroke="#3d76ff" vector-effect="non-scaling-stroke" d="
  M 356.49 293.77
  L 371.60 294.25
  Q 371.71 294.26 371.71 294.36
  L 371.71 294.65
  A 0.19 0.18 5.2 0 1 371.49 294.83
  Q 369.53 294.45 367.73 295.08
  Q 367.08 295.30 367.08 295.99
  L 367.00 308.22
  A 1.08 1.08 0.0 0 1 365.94 309.29
  L 340.24 309.72"
/>
</g>
<path fill="#2593ff" d="
  M 222.75 140.23
  Q 222.86 139.67 223.65 139.24
  Q 224.18 138.96 224.18 138.36
  L 224.17 50.36
  Q 224.17 49.71 223.56 49.47
  L 222.49 49.04
  Q 236.37 48.15 241.08 48.89
  C 245.51 49.59 247.24 53.61 247.24 57.98
  Q 247.25 96.03 247.27 134.21
  Q 247.27 134.58 246.89 134.64
  Q 234.67 136.34 222.75 140.23
  Z"
/>
<path fill="#1d9cff" d="
  M 222.49 49.04
  L 223.56 49.47
  Q 224.17 49.71 224.17 50.36
  L 224.18 138.36
  Q 224.18 138.96 223.65 139.24
  Q 222.86 139.67 222.75 140.23
  Q 177.07 156.62 154.04 199.25
  Q 154.22 195.53 157.03 191.62
  A 0.60 0.60 0.0 0 0 156.84 190.75
  C 155.37 189.90 156.24 188.56 156.24 187.44
  Q 156.30 155.75 156.20 124.06
  C 156.18 117.33 155.59 110.71 156.85 108.02
  A 0.64 0.63 -60.4 0 0 156.64 107.23
  Q 155.59 106.51 156.04 105.76
  L 169.52 114.10
  A 0.99 0.99 0.0 0 0 170.42 114.18
  L 187.93 106.92
  Q 188.39 106.73 188.50 106.25
  Q 191.32 93.69 194.23 81.21
  Q 196.96 69.45 199.66 64.78
  Q 206.85 52.35 222.49 49.04
  Z"
/>
<path fill="#367eff" d="
  M 289.81 91.71
  C 287.91 72.86 306.11 57.89 324.06 62.98
  C 350.37 70.44 350.87 106.08 325.54 115.19
  Q 325.04 115.36 325.03 115.89
  Q 324.92 136.25 325.02 156.48
  C 325.05 162.23 320.94 164.71 315.48 164.73
  Q 289.66 164.81 263.83 164.72
  Q 263.32 164.72 263.32 164.21
  L 263.22 149.46
  A 0.50 0.50 0.0 0 1 263.72 148.96
  L 308.49 149.02
  A 0.51 0.51 0.0 0 0 309.00 148.51
  L 309.00 116.01
  Q 309.00 115.45 308.47 115.26
  C 297.92 111.49 290.93 102.80 289.81 91.71
  Z"
/>
<path fill="#13a8ff" d="
  M 156.04 105.76
  Q 155.59 106.51 156.64 107.23
  A 0.64 0.63 -60.4 0 1 156.85 108.02
  C 155.59 110.71 156.18 117.33 156.20 124.06
  Q 156.30 155.75 156.24 187.44
  C 156.24 188.56 155.37 189.90 156.84 190.75
  A 0.60 0.60 0.0 0 1 157.03 191.62
  Q 154.22 195.53 154.04 199.25
  C 135.00 236.19 135.54 279.62 155.80 315.96
  Q 155.76 319.73 158.65 322.63
  Q 158.99 322.97 158.99 323.46
  L 158.85 404.54
  C 143.30 414.30 132.49 423.50 115.46 419.19
  L 116.22 418.96
  A 0.33 0.33 0.0 0 0 116.26 418.34
  L 114.84 417.68
  Q 114.24 417.40 114.24 416.75
  L 114.25 96.50
  Q 114.25 96.00 114.75 96.00
  L 115.53 96.00
  A 0.50 0.50 0.0 0 0 116.00 95.33
  Q 115.60 94.22 114.35 94.50
  A 0.05 0.05 0.0 0 1 114.29 94.43
  L 114.45 94.14
  Q 114.54 93.97 114.36 93.90
  Q 113.93 93.71 113.63 93.41
  C 130.58 87.88 142.11 96.64 156.04 105.76
  Z"
/>
<path fill="#0cb1ff" d="
  M 113.63 93.41
  Q 113.93 93.71 114.36 93.90
  Q 114.54 93.97 114.45 94.14
  L 114.29 94.43
  A 0.05 0.05 0.0 0 0 114.35 94.50
  Q 115.60 94.22 116.00 95.33
  A 0.50 0.50 0.0 0 1 115.53 96.00
  L 114.75 96.00
  Q 114.25 96.00 114.25 96.50
  L 114.24 416.75
  Q 114.24 417.40 114.84 417.68
  L 116.26 418.34
  A 0.33 0.33 0.0 0 1 116.22 418.96
  L 115.46 419.19
  C 104.84 416.12 97.89 408.10 89.64 399.60
  Q 80.79 390.46 78.14 384.96
  C 71.67 371.55 75.73 360.72 83.47 348.33
  Q 90.52 337.05 97.52 325.77
  Q 97.75 325.41 97.59 325.02
  L 90.37 307.34
  Q 90.21 306.96 89.82 306.87
  Q 75.77 303.73 61.75 300.50
  C 47.68 297.26 37.36 290.87 33.32 276.32
  Q 31.97 271.49 32.00 261.57
  C 32.02 253.53 31.29 243.91 33.00 236.88
  C 36.60 222.13 46.75 215.01 60.84 211.71
  Q 75.33 208.31 89.77 205.16
  A 0.75 0.75 0.0 0 0 90.32 204.70
  L 97.59 186.94
  Q 97.78 186.49 97.52 186.09
  Q 88.76 172.37 80.40 158.50
  C 71.82 144.26 73.63 128.82 85.33 116.85
  C 91.90 110.13 102.57 97.08 113.63 93.41
  Z"
/>
<path fill="#446dff" d="
  M 360.99 218.23
  L 378.50 217.79
  A 0.27 0.26 -44.2 0 0 378.51 217.26
  Q 378.37 217.25 378.25 217.25
  Q 378.19 217.25 378.20 216.94
  Q 378.21 216.48 378.61 216.50
  A 0.39 0.39 0.0 0 0 379.02 216.11
  C 378.99 213.20 378.25 205.79 379.97 203.60
  A 0.48 0.47 -69.1 0 0 379.63 202.83
  L 371.06 202.32
  L 380.97 202.29
  Q 381.50 202.29 381.50 201.76
  L 381.50 154.03
  Q 381.50 153.60 381.09 153.45
  C 355.85 144.16 355.86 108.31 382.41 100.90
  C 405.51 94.45 424.91 119.28 413.61 140.38
  Q 408.67 149.61 398.02 153.46
  Q 397.53 153.64 397.53 154.16
  Q 397.44 180.93 397.52 207.62
  C 397.54 214.80 395.41 218.23 388.08 218.25
  Q 374.55 218.27 360.99 218.23
  Z"
/>
<path fill="#2593ff" d="
  M 207.85 347.39
  Q 208.15 346.72 208.75 347.34
  Q 208.88 347.48 208.88 347.29
  L 209.75 302.78
  Q 209.76 302.08 210.02 302.73
  Q 210.40 303.68 210.23 304.73
  A 0.14 0.14 0.0 0 0 210.47 304.85
  Q 210.57 304.76 210.57 304.57
  Q 210.60 298.73 209.22 293.11
  C 207.49 286.12 207.95 277.41 207.52 272.01
  Q 207.39 270.44 205.66 269.98
  Q 205.20 269.86 205.27 269.39
  Q 205.54 267.79 205.19 266.30
  Q 205.08 265.83 205.16 265.36
  C 205.56 263.21 204.46 261.53 204.41 259.86
  Q 204.36 258.27 204.62 256.70
  C 205.24 252.88 204.35 249.21 205.02 245.20
  Q 205.10 244.74 204.92 244.32
  C 203.87 241.86 204.53 238.26 204.92 235.68
  Q 205.04 234.90 205.75 235.25
  L 205.98 235.36
  Q 206.54 235.63 206.77 235.06
  Q 208.10 231.85 207.45 228.41
  Q 207.39 228.13 207.54 227.88
  L 207.78 227.48
  Q 208.09 226.96 207.66 226.54
  L 207.47 226.34
  Q 207.17 226.05 207.41 225.71
  Q 208.60 223.95 208.21 221.81
  Q 208.11 221.25 208.69 221.25
  Q 208.86 221.25 209.08 221.24
  Q 209.57 221.20 209.57 220.71
  Q 209.56 216.01 210.04 211.32
  C 210.46 207.24 209.88 203.95 209.55 200.01
  C 208.75 190.26 209.18 180.12 209.11 170.31
  Q 209.08 167.53 209.41 165.91
  Q 209.51 165.44 209.10 165.69
  Q 206.53 167.31 205.11 166.45
  Q 224.61 154.27 246.75 150.76
  A 0.43 0.43 0.0 0 1 247.25 151.19
  L 247.25 360.74
  Q 247.25 361.23 246.77 361.15
  Q 225.99 357.94 207.85 347.39
  Z"
/>
<path fill="#1d9cff" d="
  M 207.85 347.39
  C 140.58 307.28 139.20 208.21 205.11 166.45
  Q 206.53 167.31 209.10 165.69
  Q 209.51 165.44 209.41 165.91
  Q 209.08 167.53 209.11 170.31
  C 209.18 180.12 208.75 190.26 209.55 200.01
  C 209.88 203.95 210.46 207.24 210.04 211.32
  Q 209.56 216.01 209.57 220.71
  Q 209.57 221.20 209.08 221.24
  Q 208.86 221.25 208.69 221.25
  Q 208.11 221.25 208.21 221.81
  Q 208.60 223.95 207.41 225.71
  Q 207.17 226.05 207.47 226.34
  L 207.66 226.54
  Q 208.09 226.96 207.78 227.48
  L 207.54 227.88
  Q 207.39 228.13 207.45 228.41
  Q 208.10 231.85 206.77 235.06
  Q 206.54 235.63 205.98 235.36
  L 205.75 235.25
  Q 205.04 234.90 204.92 235.68
  C 204.53 238.26 203.87 241.86 204.92 244.32
  Q 205.10 244.74 205.02 245.20
  C 204.35 249.21 205.24 252.88 204.62 256.70
  Q 204.36 258.27 204.41 259.86
  C 204.46 261.53 205.56 263.21 205.16 265.36
  Q 205.08 265.83 205.19 266.30
  Q 205.54 267.79 205.27 269.39
  Q 205.20 269.86 205.66 269.98
  Q 207.39 270.44 207.52 272.01
  C 207.95 277.41 207.49 286.12 209.22 293.11
  Q 210.60 298.73 210.57 304.57
  Q 210.57 304.76 210.47 304.85
  A 0.14 0.14 0.0 0 1 210.23 304.73
  Q 210.40 303.68 210.02 302.73
  Q 209.76 302.08 209.75 302.78
  L 208.88 347.29
  Q 208.88 347.48 208.75 347.34
  Q 208.15 346.72 207.85 347.39
  Z"
/>
<path fill="#367eff" d="
  M 371.06 202.32
  L 379.63 202.83
  A 0.48 0.47 -69.1 0 1 379.97 203.60
  C 378.25 205.79 378.99 213.20 379.02 216.11
  A 0.39 0.39 0.0 0 1 378.61 216.50
  Q 378.21 216.48 378.20 216.94
  Q 378.19 217.25 378.25 217.25
  Q 378.37 217.25 378.51 217.26
  A 0.27 0.26 -44.2 0 1 378.50 217.79
  L 360.99 218.23
  L 263.75 218.24
  A 0.50 0.50 0.0 0 1 263.25 217.74
  L 263.25 203.24
  A 0.97 0.97 0.0 0 1 264.22 202.27
  L 371.06 202.32
  Z"
/>
<path fill="#505eff" d="
  M 426.44 264.09
  Q 427.16 264.24 425.82 263.01
  Q 425.43 262.66 425.54 262.14
  Q 426.30 258.76 425.94 255.26
  A 0.57 0.56 60.3 0 1 426.04 254.88
  Q 427.91 251.96 425.09 250.70
  Q 424.55 250.46 424.71 249.88
  L 425.05 248.73
  Q 425.13 248.46 424.85 248.45
  L 415.94 248.08
  L 425.90 247.98
  Q 426.41 247.98 426.59 247.50
  C 437.85 216.59 483.01 226.79 479.70 259.00
  C 477.88 276.68 459.70 287.70 442.98 281.54
  Q 431.36 277.27 426.44 264.09
  Z"
/>
<path fill="#367eff" d="
  M 351.97 248.08
  L 373.11 248.71
  Q 373.19 248.71 373.19 248.79
  Q 373.19 248.83 373.19 248.86
  Q 373.19 248.93 373.00 248.94
  L 367.55 249.16
  Q 367.03 249.18 367.30 249.63
  L 367.65 250.23
  Q 367.94 250.72 368.52 250.80
  L 371.77 251.21
  A 0.37 0.37 0.0 0 1 371.82 251.94
  Q 370.13 252.43 370.47 254.05
  Q 370.58 254.56 370.09 254.72
  L 367.27 255.64
  A 0.16 0.16 0.0 0 0 367.30 255.95
  L 367.72 256.01
  A 0.11 0.11 0.0 0 1 367.73 256.23
  Q 367.55 256.27 367.36 256.34
  Q 367.04 256.46 367.05 256.81
  L 367.19 260.84
  Q 367.21 261.37 367.00 261.85
  L 366.53 262.95
  Q 366.37 263.33 366.78 263.34
  L 384.03 263.95
  L 263.80 263.98
  A 0.46 0.45 -0.0 0 1 263.34 263.53
  L 263.21 248.54
  A 0.52 0.52 0.0 0 1 263.73 248.02
  L 351.97 248.08
  Z"
/>
<path fill="#446dff" d="
  M 351.97 248.08
  L 415.94 248.08
  L 424.85 248.45
  Q 425.13 248.46 425.05 248.73
  L 424.71 249.88
  Q 424.55 250.46 425.09 250.70
  Q 427.91 251.96 426.04 254.88
  A 0.57 0.56 60.3 0 0 425.94 255.26
  Q 426.30 258.76 425.54 262.14
  Q 425.43 262.66 425.82 263.01
  Q 427.16 264.24 426.44 264.09
  L 384.03 263.95
  L 366.78 263.34
  Q 366.37 263.33 366.53 262.95
  L 367.00 261.85
  Q 367.21 261.37 367.19 260.84
  L 367.05 256.81
  Q 367.04 256.46 367.36 256.34
  Q 367.55 256.27 367.73 256.23
  A 0.11 0.11 0.0 0 0 367.72 256.01
  L 367.30 255.95
  A 0.16 0.16 0.0 0 1 367.27 255.64
  L 370.09 254.72
  Q 370.58 254.56 370.47 254.05
  Q 370.13 252.43 371.82 251.94
  A 0.37 0.37 0.0 0 0 371.77 251.21
  L 368.52 250.80
  Q 367.94 250.72 367.65 250.23
  L 367.30 249.63
  Q 367.03 249.18 367.55 249.16
  L 373.00 248.94
  Q 373.19 248.93 373.19 248.86
  Q 373.19 248.83 373.19 248.79
  Q 373.19 248.71 373.11 248.71
  L 351.97 248.08
  Z"
/>
<path fill="#367eff" d="
  M 356.49 293.77
  L 371.60 294.25
  Q 371.71 294.26 371.71 294.36
  L 371.71 294.65
  A 0.19 0.18 5.2 0 1 371.49 294.83
  Q 369.53 294.45 367.73 295.08
  Q 367.08 295.30 367.08 295.99
  L 367.00 308.22
  A 1.08 1.08 0.0 0 1 365.94 309.29
  L 340.24 309.72
  L 264.58 309.74
  A 1.33 1.33 0.0 0 1 263.25 308.41
  L 263.25 294.27
  A 0.51 0.51 0.0 0 1 263.76 293.76
  L 356.49 293.77
  Z"
/>
<path fill="#446dff" d="
  M 356.49 293.77
  Q 372.04 293.72 387.57 293.76
  C 394.07 293.78 397.52 296.15 397.50 302.76
  Q 397.45 330.33 397.52 357.91
  Q 397.52 358.44 398.01 358.61
  C 418.19 365.87 423.82 391.04 407.25 405.37
  C 392.47 418.16 368.83 411.23 363.47 392.37
  C 359.29 377.66 366.76 364.02 381.01 358.56
  Q 381.53 358.36 381.53 357.81
  L 381.48 310.24
  Q 381.48 309.76 381.00 309.76
  L 340.24 309.72
  L 365.94 309.29
  A 1.08 1.08 0.0 0 0 367.00 308.22
  L 367.08 295.99
  Q 367.08 295.30 367.73 295.08
  Q 369.53 294.45 371.49 294.83
  A 0.19 0.18 5.2 0 0 371.71 294.65
  L 371.71 294.36
  Q 371.71 294.26 371.60 294.25
  L 356.49 293.77
  Z"
/>
<path fill="#1d9cff" d="
  M 155.80 315.96
  Q 179.03 356.17 222.77 371.75
  L 222.66 372.06
  Q 222.56 372.34 222.79 372.53
  L 223.60 373.20
  Q 224.00 373.52 224.00 374.04
  L 224.00 462.25
  Q 224.00 462.78 223.48 462.67
  Q 222.75 462.52 222.62 462.90
  Q 206.86 459.78 199.60 447.07
  Q 196.94 442.43 194.27 430.90
  Q 191.37 418.38 188.48 405.74
  Q 188.37 405.26 187.92 405.07
  L 170.51 397.84
  Q 170.07 397.65 169.67 397.90
  L 158.85 404.54
  L 158.99 323.46
  Q 158.99 322.97 158.65 322.63
  Q 155.76 319.73 155.80 315.96
  Z"
/>
<path fill="#367eff" d="
  M 308.46 363.23
  L 264.01 363.26
  A 0.76 0.76 0.0 0 1 263.25 362.50
  L 263.25 347.99
  Q 263.25 347.22 264.02 347.22
  Q 290.05 347.24 315.57 347.27
  C 322.58 347.27 324.95 350.68 324.97 357.18
  Q 325.03 376.63 324.99 396.06
  Q 324.99 396.59 325.49 396.77
  C 344.11 403.38 350.39 425.60 337.30 440.74
  C 323.10 457.17 295.66 450.58 290.63 429.43
  C 287.16 414.87 294.56 401.91 308.52 396.68
  Q 309.00 396.51 309.00 396.00
  L 309.00 363.77
  A 0.54 0.54 0.0 0 0 308.46 363.23
  Z"
/>
<path fill="#2593ff" d="
  M 222.77 371.75
  Q 234.66 375.65 247.00 377.41
  A 0.31 0.30 4.4 0 1 247.26 377.71
  Q 247.25 416.14 247.25 453.78
  C 247.25 457.85 246.19 461.96 242.00 462.80
  Q 234.61 464.28 222.62 462.90
  Q 222.75 462.52 223.48 462.67
  Q 224.00 462.78 224.00 462.25
  L 224.00 374.04
  Q 224.00 373.52 223.60 373.20
  L 222.79 372.53
  Q 222.56 372.34 222.66 372.06
  L 222.77 371.75
  Z"
/>
</svg>
